<?xml version="1.0" encoding="iso-8859-1"?>
<!-- Uploaded to: SVG Repo, www.svgrepo.com, Generator: SVG Repo Mixer Tools -->
<!DOCTYPE svg PUBLIC "-//W3C//DTD SVG 1.1//EN" "http://www.w3.org/Graphics/SVG/1.1/DTD/svg11.dtd">
<svg fill="#fff" height="800px" width="800px" version="1.1" id="Capa_1" xmlns="http://www.w3.org/2000/svg" xmlns:xlink="http://www.w3.org/1999/xlink" 
	 viewBox="0 0 212.156 212.156" xml:space="preserve">
<path d="M209.156,166.942H3c-1.657,0-3-1.343-3-3s1.343-3,3-3h20.983v-60.244c0-19.023,15.477-34.5,34.5-34.5h1.297
	c19.022,0,34.499,15.477,34.499,34.5v60.244h21.556v-60.244c0-19.023,15.477-34.5,34.5-34.5h1.297c19.023,0,34.5,15.477,34.5,34.5
	v60.244h23.024c1.657,0,3,1.343,3,3S210.813,166.942,209.156,166.942z M173.374,160.942h6.758v-60.244
	c0-15.715-12.785-28.5-28.5-28.5h-1.297c-15.715,0-28.5,12.785-28.5,28.5v21.803h11.394c0.045-0.002,0.09,0,0.135,0h10.431
	c6.322,0,12.282,2.774,16.351,7.612l8.214,9.763c2.266,2.693,3.817,5.896,4.545,9.3c0.011,0.046,0.02,0.091,0.028,0.137
	c0.292,1.413,0.442,2.859,0.442,4.318V160.942z M121.835,160.942h45.539v-7.312c0-0.256-0.007-0.512-0.02-0.767H153.34
	c-9.355,0-17.566-6.316-19.966-15.359l-2.388-9.004h-9.151V160.942z M51.245,160.942h37.034v-32.441H54.113
	c-1.581,0-2.868,1.287-2.868,2.868V160.942z M40.189,160.942h5.056v-23.767h-5.056V160.942z M29.983,160.942h4.206V130.54
	c0-1.124-0.915-2.039-2.039-2.039h-2.167V160.942z M137.193,128.501l1.979,7.465c1.703,6.417,7.528,10.898,14.167,10.898h12.463
	c-0.546-1.114-1.228-2.165-2.036-3.125l-8.214-9.764c-2.926-3.479-7.212-5.475-11.759-5.475H137.193z M40.189,131.176h5.058
	c0.104-4.801,4.041-8.675,8.866-8.675h34.166v-21.803c0-15.715-12.784-28.5-28.499-28.5h-1.297c-15.715,0-28.5,12.785-28.5,28.5
	v21.803h2.167c4.433,0,8.039,3.606,8.039,8.039V131.176z M81.755,151.209H57.771c-1.657,0-3-1.343-3-3v-14.033c0-1.657,1.343-3,3-3
	h23.984c1.657,0,3,1.343,3,3v14.033C84.755,149.866,83.412,151.209,81.755,151.209z M60.771,145.209h17.984v-8.033H60.771V145.209z
	 M209.156,51.214H3c-1.657,0-3-1.343-3-3s1.343-3,3-3h206.156c1.657,0,3,1.343,3,3S210.813,51.214,209.156,51.214z"/>
</svg>